REM DIRINDEX 1\2,1\3
REM DIRNAME cjc080,folder01,folder02
TITLE ""
FILE "ScrambleS_3Part1_Theme054.mp3" MP3
  TRACK 01 AUDIO
    TITLE "3:cjc080_0261"
    INDEX 01 00:00:00
  TRACK 02 AUDIO
    TITLE "0:"
    INDEX 01 00:01:36
  TRACK 03 AUDIO
    TITLE "2:cjc080_0262"
    INDEX 01 00:02:57
  TRACK 04 AUDIO
    TITLE "0:"
    INDEX 01 00:05:24
  TRACK 05 AUDIO
    TITLE "2:cjc080_0263"
    INDEX 01 00:06:39
  TRACK 06 AUDIO
    TITLE "0:"
    INDEX 01 00:10:27
